<?xml version="1.0" encoding="UTF-8" standalone="no"?>
<!-- Generator: Adobe Illustrator 15.1.0, SVG Export Plug-In . SVG Version: 6.00 Build 0)  -->

<svg
   xmlns:dc="http://purl.org/dc/elements/1.1/"
   xmlns:cc="http://creativecommons.org/ns#"
   xmlns:rdf="http://www.w3.org/1999/02/22-rdf-syntax-ns#"
   xmlns:svg="http://www.w3.org/2000/svg"
   xmlns="http://www.w3.org/2000/svg"
   xmlns:sodipodi="http://sodipodi.sourceforge.net/DTD/sodipodi-0.dtd"
   xmlns:inkscape="http://www.inkscape.org/namespaces/inkscape"
   version="1.1"
   x="0px"
   y="0px"
   width="257"
   height="257"
   viewBox="0 0 257.00001 257.00001"
   enable-background="new 0 0 283.46 283.46"
   xml:space="preserve"
   id="svg3224"
   inkscape:version="0.48.5 r10040"
   sodipodi:docname="logo.svg"
   inkscape:export-filename="C:\git\akolocare\public\images\logo120.png"
   inkscape:export-xdpi="42.02"
   inkscape:export-ydpi="42.02"><metadata
   id="metadata3461"><rdf:RDF><cc:Work
       rdf:about=""><dc:format>image/svg+xml</dc:format><dc:type
         rdf:resource="http://purl.org/dc/dcmitype/StillImage" /><dc:title></dc:title></cc:Work></rdf:RDF></metadata><defs
   id="defs3459" /><sodipodi:namedview
   pagecolor="#ffffff"
   bordercolor="#666666"
   borderopacity="1"
   objecttolerance="10"
   gridtolerance="10"
   guidetolerance="10"
   inkscape:pageopacity="0"
   inkscape:pageshadow="2"
   inkscape:window-width="1920"
   inkscape:window-height="1017"
   id="namedview3457"
   showgrid="false"
   fit-margin-top="1"
   fit-margin-left="1"
   fit-margin-right="1"
   fit-margin-bottom="1"
   inkscape:zoom="2"
   inkscape:cx="32.195492"
   inkscape:cy="76.376808"
   inkscape:window-x="-8"
   inkscape:window-y="-8"
   inkscape:window-maximized="1"
   inkscape:current-layer="svg3224" />


<g
   id="Färbig"
   transform="translate(305.36613,-28.812653)"
   style="fill:#313131;fill-opacity:1">
	<g
   id="g3381"
   style="fill:#313131;fill-opacity:1;stroke:none">
		<g
   id="g3383"
   style="fill:#313131;fill-opacity:1;stroke:none">
			<g
   id="g3385"
   style="fill:#313131;fill-opacity:1;stroke:none">
				
			</g>
		</g>
		<g
   id="g3389"
   style="fill:#313131;fill-opacity:1;stroke:none">
			<g
   id="g3391"
   style="fill:#313131;fill-opacity:1;stroke:none">
				
			</g>
		</g>
		<g
   id="g3395"
   style="fill:#313131;fill-opacity:1;stroke:none">
			<g
   id="g3397"
   style="fill:#313131;fill-opacity:1;stroke:none">
				
			</g>
		</g>
		<g
   id="g3401"
   style="fill:#313131;fill-opacity:1;stroke:none">
			<g
   id="g3403"
   style="fill:#313131;fill-opacity:1;stroke:none">
				
			</g>
		</g>
		<g
   id="g3407"
   style="fill:#313131;fill-opacity:1;stroke:none">
			<g
   id="g3409"
   style="fill:#313131;fill-opacity:1;stroke:none">
				
			</g>
		</g>
		<g
   id="g3413"
   style="fill:#313131;fill-opacity:1;stroke:none">
			<g
   id="g3415"
   style="fill:#313131;fill-opacity:1;stroke:none">
				
			</g>
		</g>
		<g
   id="g3419"
   style="fill:#313131;fill-opacity:1;stroke:none">
			<g
   id="g3421"
   style="fill:#313131;fill-opacity:1;stroke:none">
				
			</g>
		</g>
	</g>
	
</g>
<g
   id="g4356"
   transform="translate(0.29561991,-8.629005)"><path
     transform="matrix(0.95339048,0,0,0.93996766,-114.55515,-15.631639)"
     sodipodi:end="6.283134"
     sodipodi:start="0"
     d="m 265.63872,112.48526 c 0,39.74459 -32.21936,71.96394 -71.96395,71.96394 -39.74458,0 -71.96394,-32.21935 -71.96394,-71.96394 0,-39.744589 32.21936,-71.963943 71.96394,-71.963943 39.74315,0 71.96191,32.217104 71.96395,71.960253 l -71.96395,0.004 z"
     sodipodi:ry="71.963943"
     sodipodi:rx="71.963943"
     sodipodi:cy="112.48526"
     sodipodi:cx="193.67477"
     id="path4237-5-1"
     style="fill:#ffffff;fill-opacity:1;fill-rule:nonzero;stroke:#ffffff;stroke-width:0.99921262;stroke-linecap:round;stroke-linejoin:round;stroke-miterlimit:4;stroke-opacity:0;stroke-dasharray:none"
     sodipodi:type="arc" /><path
     transform="matrix(1.2744897,0,0,1.2565461,-121.15802,23.598836)"
     sodipodi:end="6.283134"
     sodipodi:start="0"
     d="m 265.63872,112.48526 c 0,39.74459 -32.21936,71.96394 -71.96395,71.96394 -39.74458,0 -71.96394,-32.21935 -71.96394,-71.96394 0,-39.744589 32.21936,-71.963943 71.96394,-71.963943 39.74315,0 71.96191,32.217104 71.96395,71.960253 l -71.96395,0.004 z"
     sodipodi:ry="71.963943"
     sodipodi:rx="71.963943"
     sodipodi:cy="112.48526"
     sodipodi:cx="193.67477"
     id="path4237-5-3-8"
     style="fill:#ffffff;fill-opacity:1;fill-rule:nonzero;stroke:#ffffff;stroke-width:0.99921262;stroke-linecap:round;stroke-linejoin:round;stroke-miterlimit:4;stroke-opacity:0;stroke-dasharray:none"
     sodipodi:type="arc" /><path
     transform="matrix(1.2733291,0,0,1.2438516,-83.465498,-31.515736)"
     sodipodi:end="6.283134"
     sodipodi:start="0"
     d="m 265.63872,112.48526 c 0,39.74459 -32.21936,71.96394 -71.96395,71.96394 -39.74458,0 -71.96394,-32.21935 -71.96394,-71.96394 0,-39.744589 32.21936,-71.963943 71.96394,-71.963943 39.74315,0 71.96191,32.217104 71.96395,71.960253 l -71.96395,0.004 z"
     sodipodi:ry="71.963943"
     sodipodi:rx="71.963943"
     sodipodi:cy="112.48526"
     sodipodi:cx="193.67477"
     id="path4237"
     style="fill:#dd9f9f;fill-opacity:0.95744683;fill-rule:nonzero;stroke:#ffffff;stroke-width:0.99921262;stroke-linecap:round;stroke-linejoin:round;stroke-miterlimit:4;stroke-opacity:0;stroke-dasharray:none"
     sodipodi:type="arc" /><path
     transform="matrix(0.95339048,0,0,0.93996766,-114.56499,-15.61071)"
     sodipodi:end="6.283134"
     sodipodi:start="0"
     d="m 265.63872,112.48526 c 0,39.74459 -32.21936,71.96394 -71.96395,71.96394 -39.74458,0 -71.96394,-32.21935 -71.96394,-71.96394 0,-39.744589 32.21936,-71.963943 71.96394,-71.963943 39.74315,0 71.96191,32.217104 71.96395,71.960253 l -71.96395,0.004 z"
     sodipodi:ry="71.963943"
     sodipodi:rx="71.963943"
     sodipodi:cy="112.48526"
     sodipodi:cx="193.67477"
     id="path4237-5"
     style="fill:#468b7f;fill-opacity:0.73404254;fill-rule:nonzero;stroke:#ffffff;stroke-width:0.99921262;stroke-linecap:round;stroke-linejoin:round;stroke-miterlimit:4;stroke-opacity:0;stroke-dasharray:none"
     sodipodi:type="arc" /><path
     transform="matrix(1.2744897,0,0,1.2565461,-121.12732,23.399208)"
     sodipodi:end="6.283134"
     sodipodi:start="0"
     d="m 265.63872,112.48526 c 0,39.74459 -32.21936,71.96394 -71.96395,71.96394 -39.74458,0 -71.96394,-32.21935 -71.96394,-71.96394 0,-39.744589 32.21936,-71.963943 71.96394,-71.963943 39.74315,0 71.96191,32.217104 71.96395,71.960253 l -71.96395,0.004 z"
     sodipodi:ry="71.963943"
     sodipodi:rx="71.963943"
     sodipodi:cy="112.48526"
     sodipodi:cx="193.67477"
     id="path4237-5-3"
     style="fill:#dfdfa5;fill-opacity:0.91489377;fill-rule:nonzero;stroke:#ffffff;stroke-width:0.99921262;stroke-linecap:round;stroke-linejoin:round;stroke-miterlimit:4;stroke-opacity:0;stroke-dasharray:none"
     sodipodi:type="arc" /><g
     transform="translate(-290.37135,-3.7103624)"
     style="fill:#ffffff;fill-opacity:1"
     id="g4351"><path
       style="fill:#ffffff;fill-opacity:1;stroke:none"
       d="m 71.90625,69.875 c -1.854103,0.01555 -3.232187,0.893125 -2.03125,3.53125 5.85464,12.86569 16.693906,22.789285 29.28125,28.875 -4.868039,-0.51235 -9.767894,-1.12942 -14.625,-1.46875 -3.123,-0.218 -11.83075,-0.89225 -13.21875,3.21875 -1.017,3.011 5.89525,4.574 7.65625,5.125 5.107604,1.59682 10.165846,3.46272 15.3125,4.96875 -4.389987,1.0833 -8.833894,2.99729 -11.59375,5.75 -1.807,1.802 -1.25675,4.48825 0.90625,5.78125 3.928948,2.34994 8.295887,1.59354 12.625,1.65625 -3.243996,2.08964 -7.430088,2.46479 -9.84375,6.0625 -1.639,2.442 1.138,4.574 3.125,5.375 8.086,3.259 16.77175,1.84875 25.09375,3.59375 1.593,0.334 1.6745,3.19675 1.875,4.90625 -0.65675,3.62236 -2.82326,7.51767 -8.46875,8.9375 -3.45962,0.41037 -8.361863,-1.40406 -8.03125,-1.09375 -2.20315,-1.14882 -4.365232,-2.32011 -6.40625,-3.75 -3.5,-2.452 -6.0875,-6.1155 -8.6875,-9.4375 -4.784,-6.112 -11.86125,-12.9625 -19.90625,-13.9375 -7.984,-0.967 -16.07975,2.2275 -24.09375,2.3125 -8.107,0.085 -16.30125,-2.9705 -24.15625,-4.6875 -1.06,-0.232 -2.666,0.22725 -3.125,1.28125 -1.706,3.915 4.566,7.0195 7.125,8.8125 4.54073,3.17953 9.761293,4.80572 15.09375,6.03125 -4.624549,1.5006 -9.286881,4.34773 -11.09375,8.1875 -1.037,2.202 3.20025,2.47425 4.28125,2.53125 4.900076,0.25896 9.723086,-1.43226 14.5625,-0.71875 -2.046621,1.19914 -4.170457,2.26463 -6.1875,3.5 -1.543,0.945 -4.9675,2.659 -5.1875,4.75 -0.418297,3.97006 12.441283,2.13461 17.9375,1.375 -3.795193,3.56477 -12.494224,9.05635 -9.8125,13.8125 1.897,3.365 9.248,1.694 12.125,1.25 1.898,-0.294 3.86575,-0.46375 5.71875,-0.96875 1.946,-0.53 -0.5995,2.364 -1.0625,3.375 -0.849,1.855 -1.38575,3.49625 -1.21875,5.53125 0.17,2.067 3.183,2.194 4.625,2.125 4.637,-0.223 8.096,-2.9375 12.25,0.9375 0.353714,0.32988 10.409848,7.83823 12.3125,23.71875 -4.437,1.688 -9.035,3.35875 -13.625,4.59375 -4.221,1.135 -8.99125,1.617 -11.53125,5.625 -3.032,4.786 -0.53275,12.097 1.15625,16.875 0.418,1.183 2.86875,0.216 3.46875,-0.25 5.388,-4.181 11.2035,-7.72175 17.5625,-10.21875 2.528,-0.993 0.20125,-2.06325 -1.46875,-1.40625 -5.81702,2.28427 -11.244305,5.37168 -16.3125,9 -2.100882,-6.35029 -3.953911,-14.90853 4.15625,-17.09375 4.161,-1.121 8.2165,-2.3335 12.3125,-3.6875 3.261511,-1.07787 11.150327,-3.58069 18,-10.5 4.63174,-4.67882 9.00144,-13.14818 10.0625,-16.625 0.70804,-1.74302 1.52416,-4.94521 0.53125,-9.5625 -1.91445,-6.25576 0.23052,-11.0095 0.9375,-17.3125 0.386,-3.439 7.03175,-3.80825 10.4375,-7.84375 1.65417,-3.57566 0.47533,-6.60901 -1.3125,-10.71875 -2.93225,-2.679 -17.18525,-3.294 -18.53125,-3.5 -3.327,-0.51 -8.46375,-0.7215 -10.84375,-3.4375 -1.648,-1.881 9.6905,-6.76925 11.1875,-8.40625 0.804,-0.879 0.087,-1.58375 -0.875,-1.71875 -3.337,-0.468 -6.7095,0.047 -10.0625,-0.125 -4.805,-0.247 -6.17425,-3.481 -2.15625,-5.625 3.576,-1.907 8.38575,-3.3775 12.46875,-3.5625 1.083,-0.049 3.444,-2.01075 1.375,-2.46875 -5.877,-1.301 -11.4545,-3.5215 -17.1875,-5.3125 -2.774,-0.866 -5.612,-1.5665 -8.25,-2.8125 -3.965,-1.873 4.1665,-1.771 5.0625,-1.75 2.41,0.054 4.81175,0.33275 7.21875,0.46875 6.166,0.348 12.23825,1.6345 18.40625,1.8125 1.162,0.034 4.11575,-1.69075 1.84375,-2.46875 -14.432,-4.94 -26.167,-14.549 -33.75,-27.75 -0.275179,-0.482641 -0.52078,-0.978262 -0.78125,-1.46875 0.582729,0.359728 1.174688,0.73675 1.75,1.09375 3.408,2.113 6.7485,4.277 10.3125,6.125 8.182,4.243 17.551,5.97 26.125,9.25 9.135,3.495 18.39575,6.49625 27.84375,9.03125 6.925,1.858 15.0195,3.2035 19.6875,9.1875 4.802,6.154 -0.591,16.6795 -2.375,23.0625 -2.417,8.649 -0.73725,18.38825 0.84375,27.03125 0.15136,0.83115 1.27775,0.9272 2.28125,0.625 0.69498,0.13796 1.56786,0.0498 2.125,-0.34375 6.841,-4.835 15.5295,-14.54875 24.4375,-10.59375 4.96984,2.20701 7.50588,7.50661 11.65625,10.34375 -9.1643,1.21637 -19.915,9.69063 -24.71875,17.5 -4.863,7.906 -6.269,17.25525 -12.5,24.40625 -4.819,5.529 -10.86125,9.74175 -17.28125,13.21875 -5.516,2.987 -11.407,5.42975 -17.375,7.34375 -4.164,1.335 -7.76,2.851 -10.5,6.375 -0.034,0.0436 -0.0372,0.0842 -0.0625,0.125 -3.50387,3.9432 -14.58113,13.35602 -17.71875,16.46875 -1.776,1.763 -3.61975,3.52925 -5.71875,4.90625 -2.134,1.4 -6.45325,-2.48725 -8.65625,-3.15625 -3.077591,-0.40535 -3.03129,-3.21256 -4.043012,-3.73173 -1.35471,-0.69517 -0.993596,1.22561 -1.475708,1.46188 -0.647156,0.31714 0.259522,2.63384 2.33122,3.70735 3.536,1.073 5.93675,3.70925 9.96875,3.15625 2.51,-0.344 4.29175,-0.96875 6.34375,-2.46875 5.36471,-3.92681 18.05699,-14.77179 22.46875,-20.0625 0.0754,-0.0612 0.13413,-0.11888 0.1875,-0.1875 0.005,-0.006 -0.005,-0.0252 0,-0.0312 0.0255,-0.012 0.0422,-0.0188 0.0625,-0.0312 0.061,-0.0375 0.10693,-0.084 0.125,-0.125 3.4384,-4.16052 10.67862,-5.2899 15.53125,-7.21875 4.472,-1.776 8.77675,-3.894 12.96875,-6.25 5.328,-2.993 10.3245,-6.712 14.5625,-11.125 4.235,-4.412 6.96525,-9.4015 9.28125,-15.0625 1.756,-4.293 3.3745,-8.62775 5.8125,-12.59375 3.55928,-5.7861 17.81373,-13.96712 25.03125,-14.84375 0.16688,0.0212 0.32785,0.049 0.5,0.0625 1.633,0.129 4.0565,-2.2315 1.4375,-2.4375 -4.894,-0.384 -7.71275,-6.19425 -11.21875,-9.03125 -3.058,-2.474 -6.82425,-4.5405 -10.90625,-4.3125 -8.29886,0.46253 -14.82026,6.69866 -21.28125,11.5625 -1.8232,-10.53421 -2.22964,-20.20046 1.03125,-30.53125 2.37,-7.508 4.5745,-15.5565 -2.0625,-21.4375 -5.804,-5.144 -14.83125,-6.30325 -22.03125,-8.28125 C 127.41175,92.7845 116.044,87.9755 104.25,84.3125 98.746,82.6025 93.29125,80.914 88.15625,78.25 84.01725,76.103 80.2225,73.33 76.1875,71 75.096375,70.37 73.34833,69.862904 71.90625,69.875 z m -54.375,58.53125 c 6.409534,1.57642 12.830898,3.54335 19.375,4 7.118,0.496 14.1825,-1.2525 21.1875,-2.1875 11.013,-1.469 19.00625,7.8525 25.15625,15.6875 5.288,6.736 11.55925,9.6415 18.78125,13.8125 0.993,0.574 3.46875,-0.1235 3.46875,-1.4375 l 0,-0.375 c 0.61779,0.62302 1.00803,1.53321 0.9375,3.03125 -0.319,6.755 -2.9715,11.96 0.1875,18.5 0.17657,0.36557 0.82298,4.27173 0.28125,5.625 -0.0487,0.12172 -0.0949,0.21924 -0.125,0.34375 -0.22867,0.54006 -0.49875,1.22439 -0.75,2.125 0,0 -1.55362,4.10737 -3.03125,7.0625 -0.97702,2.52949 -3.41135,5.25142 -4.78125,7.125 -1.067669,1.46023 -6.181032,5.45951 -10.15625,7.84375 C 86.229294,194.32126 76.670055,186.1796 76.34375,185.875 72.04675,181.867 68.2335,182.6155 62.9375,184.0625 55.8755,185.9935 62.723,176.017 63,174 c 0.208,-1.515 -2.37225,-1.22775 -3.15625,-1.09375 -4.434,0.761 -8.70625,2.0725 -13.28125,1.9375 -5.266,-0.154 -1.402,-5.4665 0.5,-7.3125 2.678,-2.597 5.81775,-4.40225 7.96875,-7.53125 0.509,-0.739 -0.4435,-1.147 -1.0625,-1.125 -2.426,0.085 -4.81475,0.4905 -7.21875,0.8125 -0.725,0.097 -11.277,0.6895 -10.625,-0.5625 1.806,-3.471 8.61825,-5.35475 11.78125,-7.46875 0.789,-0.527 1.04375,-1.303 -0.03125,-1.625 -5.446,-1.631 -10.86725,-0.0462 -16.40625,0.21875 -4.885,0.234 -1.52525,-2.87875 0.71875,-4.34375 2.553,-1.666 5.83625,-3.02375 8.90625,-3.21875 0.896,-0.057 3.49175,-1.716 1.46875,-2.125 -5.506,-1.114 -10.9065,-2.38875 -15.9375,-4.96875 -2.023125,-1.03675 -7.811485,-4.18113 -9.09375,-7.1875 z m 72.75,105 c -0.92225,0.062 -2.05775,0.36325 -2.40625,0.78125 -3.376925,4.055 -7.561106,7.6192 -12.0625,10.4375 -2.202169,-1.08212 -4.084597,-2.67384 -4.96875,-5.0625 -0.145268,-0.39334 -0.761506,-6.00283 -1.382759,-5.96165 -0.535961,0.0355 -2.555652,1.96579 -3.044967,2.19533 -0.626295,0.2938 0.440316,4.40974 0.583976,4.79757 1.472,3.981 6.23575,7.78425 10.34375,5.40625 5.261,-3.047 10.20675,-7.207 14.09375,-11.875 0.4845,-0.582 -0.234,-0.78075 -1.15625,-0.71875 z"
       transform="translate(309.00566,-28.284271)"
       id="path3423"
       inkscape:connector-curvature="0"
       sodipodi:nodetypes="scccccccccccccccsccccccccccccccccccccccccccccccsccccccccccccscccccccccccsccccccccccccccccsscccccccccccccccccccccscccscccccscccccccscccccccccccccccccccscccsscccs" /><path
       style="fill:#ffffff;fill-opacity:1;fill-rule:nonzero;stroke:none"
       d="m 326.24151,99.388267 c -0.74308,0.401332 -0.60801,1.406843 -0.1022,1.944543 2.07607,2.84758 5.17878,4.67843 8.20969,6.35449 5.10387,2.81312 10.81513,4.2082 16.46999,5.41773 -0.98322,0.55692 -2.18141,0.41342 -3.24098,0.74686 -3.30024,0.76522 -6.41036,2.38401 -8.95937,4.61169 -0.82277,0.77451 -1.88682,1.85928 -1.49399,3.10286 0.32468,0.94615 1.39593,1.32248 2.32813,1.27454 3.97441,0.14615 7.8723,-0.91815 11.8413,-0.77005 1.67926,-0.0274 3.3734,-0.02 4.98474,0.5086 -0.11855,0.1853 -0.62684,0.39659 -0.89954,0.57415 -2.99428,1.67932 -6.34347,2.77152 -9.046,4.9387 -0.83022,0.77863 -1.85725,1.56316 -2.11579,2.72899 -0.11928,1.02123 1.00126,1.48908 1.8451,1.54956 2.73274,0.26598 5.49372,0.18387 8.23377,0.0721 2.89945,-0.14202 5.76006,-0.81903 8.65393,-0.86478 -2.35034,3.0793 -5.80372,5.02523 -8.36098,7.90247 -1.19454,1.48707 -2.46111,3.14831 -2.61298,5.11271 -0.0707,1.51717 1.30581,2.76258 2.77042,2.82843 2.71513,0.16029 5.44192,-0.10404 8.09803,-0.66265 2.31268,-0.40498 4.59879,-1.01245 6.92523,-1.24875 0.40275,0.0248 0.89519,-0.10188 1.24848,0.10496 -0.48375,1.63656 -1.4108,3.10762 -2.04111,4.69082 -0.66391,1.57589 -1.36351,3.29026 -1.04419,5.0319 0.35716,1.20317 1.70746,1.77367 2.8809,1.57994 2.37635,-0.31966 4.65071,-1.27093 7.05165,-1.28832 1.97649,-0.13025 4.00357,0.39624 5.57684,1.63911 2.91771,2.26948 5.30285,5.24636 7.25061,8.40196 2.7905,4.61385 4.62643,9.81316 5.3392,15.14525 -0.0856,0.90066 0.93841,1.63317 1.73462,1.12419 3.35585,-2.05822 6.57276,-4.39126 9.42615,-7.11423 1.5141,-1.58535 2.75287,-3.41202 4.02818,-5.18961 1.43652,-2.09462 2.34533,-4.49212 3.38089,-6.79633 0.8656,-2.09319 1.71667,-4.19481 2.35459,-6.36491 0.18763,-1.99183 0.062,-4.05647 -0.57853,-5.9625 -0.76655,-1.7802 -1.33103,-3.67716 -1.23744,-5.63752 -0.088,-2.18637 0.18422,-4.34557 0.57454,-6.48776 0.30363,-2.25074 0.75455,-4.50137 0.64356,-6.78154 -0.11746,-0.95945 -0.45905,-2.09342 -1.36726,-2.56879 -0.71957,-0.30883 -1.48002,0.344 -1.47774,1.06895 -0.6917,0.62062 -1.84939,0.74932 -2.60995,0.15836 -5.4816,-3.14379 -11.2369,-6.0446 -15.6587,-10.66142 -2.9664,-3.20784 -5.46137,-6.82455 -8.55092,-9.92024 -3.7569,-3.87543 -8.30837,-7.3157 -13.68625,-8.46579 -3.42206,-0.79566 -6.93506,-0.12502 -10.33759,0.42496 -4.73284,0.71948 -9.45505,1.62648 -14.25461,1.56369 -6.30721,0.0762 -12.41034,-1.73938 -18.50099,-3.20309 -1.06852,-0.237975 -2.12141,-0.570449 -3.20387,-0.730193 -0.15652,0.03867 -0.31304,0.07734 -0.46956,0.11601 z"
       id="path4346"
       inkscape:connector-curvature="0" /><path
       style="fill:#ffffff;fill-opacity:1;fill-rule:nonzero;stroke:none"
       d="m 383.35622,45.047778 c -1.15331,2.140494 3.16157,6.011344 4.06556,7.851254 7.55139,10.428956 18.37169,18.162139 30.35938,22.671875 0.47458,0.805949 -1.8598,0.594972 -2.39063,0.65625 -9.95339,-0.116544 -19.90339,-2.612069 -29.84375,-1.5 -2.13652,0.622557 -0.54893,2.91597 1.07813,2.984375 7.86417,3.162296 16.2363,5.343616 24.125,8.109375 -0.96092,0.952576 -3.66288,1.028709 -5.28125,1.484375 -3.94277,1.075717 -9.09341,1.854738 -11.14063,5.828125 -0.60879,3.172084 3.33401,4.036585 5.7167,3.935895 3.04091,0.32651 6.5883,0.0018 9.3458,0.689105 -3.32217,3.108693 -8.26623,4.491433 -10.96875,8.125003 -0.0739,3.22888 4.22598,3.56305 6.5625,4.17187 7.28627,1.45745 15.03593,0.67152 22.09375,3 1.45397,1.26084 1.6834,6.11917 -1.00766,11.62009 -2.98539,2.34041 -4.01641,2.73569 -6.13296,4.19241 -1.62659,2.87878 -2.05188,5.36955 -2.13667,8.18197 -1.89093,7.38361 1.56757,15.11741 -0.89458,22.34928 -3.90501,10.25973 -11.12882,19.675 -21.5,23.875 -6.93214,3.28291 -14.90702,4.15331 -21.64063,7.84375 -4.50234,3.90617 -2.8464,10.67248 -1.25,15.48438 1.74337,1.69175 3.90322,-1.36044 5.64063,-1.92188 3.64463,-2.19244 7.43024,-4.28471 11.46875,-5.5 -3.48033,2.41427 -8.05924,3.38506 -10.96875,6.51563 -0.67686,3.03934 0.74481,6.43363 2.57812,8.90625 1.30063,1.95281 3.97721,2.58959 5.75,0.92187 4.4478,-2.40112 7.50159,-6.57105 11.4375,-9.53125 1.94632,-0.72117 -0.69954,1.53627 -1.0625,2.07813 -1.96845,2.63132 -5.36205,4.08185 -6.9375,6.98437 0.17743,3.04551 4.23497,3.52161 6.3125,4.96875 2.14574,0.98803 4.85609,2.82848 6.82813,0.46875 9.43437,-7.236 17.43517,-16.29893 26.51562,-23.89062 6.90993,-3.89393 14.93801,-5.59126 21.89063,-9.51563 10.12717,-5.23073 20.29251,-12.14353 24.85937,-23.04687 3.94672,-8.70706 7.1385,-18.38673 15.04688,-24.42188 4.43484,-3.54337 9.48754,-7.29752 15.20312,-8.20312 2.01007,-1.69911 -1.3862,-3.74658 -2.33106,-5.09466 -3.83004,-3.81203 -8.42277,-9.21339 -14.52831,-7.54597 -7.74829,1.28264 -12.71285,8.08391 -19.4375,11.375 -1.27632,0.34432 -3.01273,0.38901 -2.60938,-1.54687 -1.53506,-7.81112 -1.57896,-15.98087 -0.96033,-23.85851 1.81652,-7.041858 5.81085,-14.22492 4.17908,-21.672743 -2.68995,-7.415079 -11.0825,-9.678434 -17.87634,-11.65832 -17.14348,-4.84421 -34.00911,-10.789822 -50.90491,-16.46668 -6.00052,-2.075984 -11.29938,-5.697619 -16.95312,-8.484375 -0.38927,-0.145491 -1.95003,-1.532467 -2.29994,-1.413754 z"
       id="path4348"
       inkscape:connector-curvature="0"
       sodipodi:nodetypes="cccccccccccccccccccccccccccccccccccccccccccccc" /></g></g></svg>